<?xml version="1.0" encoding="UTF-8" standalone="no"?>
<svg
   xmlns:dc="http://purl.org/dc/elements/1.1/"
   xmlns:cc="http://creativecommons.org/ns#"
   xmlns:rdf="http://www.w3.org/1999/02/22-rdf-syntax-ns#"
   xmlns:svg="http://www.w3.org/2000/svg"
   xmlns="http://www.w3.org/2000/svg"
   xmlns:sodipodi="http://sodipodi.sourceforge.net/DTD/sodipodi-0.dtd"
   xmlns:inkscape="http://www.inkscape.org/namespaces/inkscape"
   height="32px"
   style="enable-background:new 0 0 32 32;"
   version="1.1"
   viewBox="0 0 32 32"
   width="32px"
   xml:space="preserve"
   id="svg2"
   inkscape:version="0.48.5 r10040"
   sodipodi:docname="target.svg"><metadata
     id="metadata40"><rdf:RDF><cc:Work
         rdf:about=""><dc:format>image/svg+xml</dc:format><dc:type
           rdf:resource="http://purl.org/dc/dcmitype/StillImage" /></cc:Work></rdf:RDF></metadata><defs
     id="defs38" /><sodipodi:namedview
     pagecolor="#ffffff"
     bordercolor="#666666"
     borderopacity="1"
     objecttolerance="10"
     gridtolerance="10"
     guidetolerance="10"
     inkscape:pageopacity="0"
     inkscape:pageshadow="2"
     inkscape:window-width="1366"
     inkscape:window-height="706"
     id="namedview36"
     showgrid="false"
     inkscape:zoom="5.2149125"
     inkscape:cx="-31.990247"
     inkscape:cy="10.992552"
     inkscape:window-x="-8"
     inkscape:window-y="-8"
     inkscape:window-maximized="1"
     inkscape:current-layer="svg2" /><path
     sodipodi:type="arc"
     style="fill:#ffffff;fill-opacity:1;stroke:none"
     id="path3779"
     sodipodi:cx="15.532379"
     sodipodi:cy="14.166527"
     sodipodi:rx="19.559292"
     sodipodi:ry="17.833473"
     d="m 35.091671,14.166527 a 19.559292,17.833473 0 1 1 -39.1185837,0 19.559292,17.833473 0 1 1 39.1185837,0 z"
     transform="matrix(0.60866212,0,0,0.66756486,6.5450292,6.5442534)" /><g
     id="Layer_1" /><g
     id="target"
     style="stroke:none"><g
       id="g6"
       style="stroke:none"><g
         id="g8"
         style="stroke:none"><g
           id="g10"
           style="stroke:none"><path
             d="m 18.023,13.975 h 5.789 C 23.078,11.139 20.859,8.918 18.023,8.186 v 5.789 z"
             style="fill:#4e4e50;stroke:none;stroke-width:0.25000000000000000;stroke-miterlimit:4;stroke-opacity:1;stroke-dasharray:none"
             id="path12"
             inkscape:connector-curvature="0" /></g><g
           id="g14"
           style="stroke:none"><path
             d="m 18.023,18.025 v 5.787 c 2.836,-0.73 5.055,-2.953 5.789,-5.787 h -5.789 z"
             style="fill:#4e4e50;stroke:none;stroke-width:0.25000000000000000;stroke-miterlimit:4;stroke-opacity:1;stroke-dasharray:none"
             id="path16"
             inkscape:connector-curvature="0" /></g><g
           id="g18"
           style="stroke:none"><path
             d="M 13.973,13.975 V 8.186 c -2.836,0.732 -5.059,2.953 -5.789,5.789 h 5.789 z"
             style="fill:#4e4e50;stroke:none;stroke-width:0.25000000000000000;stroke-miterlimit:4;stroke-opacity:1;stroke-dasharray:none"
             id="path20"
             inkscape:connector-curvature="0" /></g><g
           id="g22"
           style="stroke:none"><path
             d="M 13.973,18.025 H 8.184 c 0.73,2.834 2.953,5.057 5.789,5.787 v -5.787 z"
             style="fill:#4e4e50;stroke:none;stroke-width:0.25000000000000000;stroke-miterlimit:4;stroke-opacity:1;stroke-dasharray:none"
             id="path24"
             inkscape:connector-curvature="0" /></g></g><g
         id="g26"
         style="stroke:none"><path
           d="m 18.023,4.053 c 5.074,0.859 9.062,4.848 9.922,9.922 H 32 C 31.074,6.664 25.336,0.924 18.023,0 v 4.053 z"
           style="fill:#4e4e50;stroke:none;stroke-width:0.25000000000000000;stroke-miterlimit:4;stroke-opacity:1;stroke-dasharray:none"
           id="path28"
           inkscape:connector-curvature="0" /><path
           d="M 4.051,13.975 C 4.91,8.9 8.898,4.912 13.973,4.053 V 0 C 6.664,0.924 0.922,6.664 0,13.975 h 4.051 z"
           style="fill:#4e4e50;stroke:none;stroke-width:0.25000000000000000;stroke-miterlimit:4;stroke-opacity:1;stroke-dasharray:none;stroke-dashoffset:0;marker-end:none"
           id="path30"
           inkscape:connector-curvature="0" /><path
           d="M 13.973,27.945 C 8.899,27.086 4.911,23.101 4.051,18.025 H 0 C 0.922,25.336 6.664,31.078 13.973,32 v -4.055 z"
           style="fill:#4e4e50;stroke:none;stroke-width:0.25000000000000000;stroke-miterlimit:4;stroke-opacity:1;stroke-dasharray:none"
           id="path32"
           inkscape:connector-curvature="0" /><path
           d="m 27.945,18.025 c -0.859,5.076 -4.848,9.061 -9.922,9.92 V 32 C 25.336,31.078 31.074,25.336 32,18.025 h -4.055 z"
           style="fill:#4e4e50;stroke:none;stroke-width:0.25000000000000000;stroke-miterlimit:4;stroke-opacity:1;stroke-dasharray:none"
           id="path34"
           inkscape:connector-curvature="0" /></g></g></g></svg>