<?xml version="1.0" encoding="UTF-8" standalone="no"?>
<svg
   xmlns:dc="http://purl.org/dc/elements/1.1/"
   xmlns:cc="http://creativecommons.org/ns#"
   xmlns:rdf="http://www.w3.org/1999/02/22-rdf-syntax-ns#"
   xmlns:svg="http://www.w3.org/2000/svg"
   xmlns="http://www.w3.org/2000/svg"
   xmlns:sodipodi="http://sodipodi.sourceforge.net/DTD/sodipodi-0.dtd"
   xmlns:inkscape="http://www.inkscape.org/namespaces/inkscape"
   enable-background="new 0 0 32 32"
   height="32px"
   id="svg2"
   version="1.1"
   viewBox="0 0 32 32"
   width="32px"
   xml:space="preserve"
   inkscape:version="0.48.5 r10040"
   sodipodi:docname="target.svg"><metadata
     id="metadata21"><rdf:RDF><cc:Work
         rdf:about=""><dc:format>image/svg+xml</dc:format><dc:type
           rdf:resource="http://purl.org/dc/dcmitype/StillImage" /></cc:Work></rdf:RDF></metadata><defs
     id="defs19" /><sodipodi:namedview
     pagecolor="#ffffff"
     bordercolor="#666666"
     borderopacity="1"
     objecttolerance="10"
     gridtolerance="10"
     guidetolerance="10"
     inkscape:pageopacity="0"
     inkscape:pageshadow="2"
     inkscape:window-width="1366"
     inkscape:window-height="706"
     id="namedview17"
     showgrid="false"
     inkscape:zoom="7.375"
     inkscape:cx="-5.1525424"
     inkscape:cy="16"
     inkscape:window-x="-8"
     inkscape:window-y="-8"
     inkscape:window-maximized="1"
     inkscape:current-layer="svg2" /><g
     id="background"
     transform="translate(-36,0)"><rect
       height="32"
       width="32"
       id="rect4"
       x="0"
       y="0"
       style="fill:none" /></g><g
     id="target"><polygon
       points="10,0 22,0 16,6 "
       id="polygon7"
       style="fill:#dc7474;fill-opacity:1" /><polygon
       points="22,32 10,32 16,26 "
       id="polygon9"
       style="fill:#dc7474;fill-opacity:1" /><polygon
       points="0,22 0,10 6,16 "
       id="polygon11"
       style="fill:#dc7474;fill-opacity:1" /><polygon
       points="32,10 32,22 26,16 "
       id="polygon13"
       style="fill:#dc7474;fill-opacity:1" /><circle
       cx="16"
       cy="16"
       r="6"
       id="circle15"
       sodipodi:cx="16"
       sodipodi:cy="16"
       sodipodi:rx="6"
       sodipodi:ry="6"
       d="m 22,16 c 0,3.313708 -2.686292,6 -6,6 -3.313708,0 -6,-2.686292 -6,-6 0,-3.313708 2.686292,-6 6,-6 3.313708,0 6,2.686292 6,6 z"
       style="fill:#dc7474;fill-opacity:1" /></g></svg>