<?xml version="1.0" encoding="utf-8"?>
<!-- Generator: Adobe Illustrator 17.0.0, SVG Export Plug-In . SVG Version: 6.00 Build 0)  -->
<!DOCTYPE svg PUBLIC "-//W3C//DTD SVG 1.1//EN" "http://www.w3.org/Graphics/SVG/1.1/DTD/svg11.dtd">
<svg version="1.1" id="Layer_1" xmlns="http://www.w3.org/2000/svg" xmlns:xlink="http://www.w3.org/1999/xlink" x="0px" y="0px"
	 width="720px" height="190px" viewBox="0 0 720 190" enable-background="new 0 0 720 190" xml:space="preserve">
<g>
	<path fill="#0732A2" d="M233.323,63.8c0,0-13.321,0-14.235,0c-0.993,0-1.799,0.745-1.799,1.725c0,0.922,0,36.367,0,36.367
		c0,5.903-2.422,9.043-7.877,9.043c-5.458,0-7.88-3.14-7.88-9.043V65.524c0-0.997-0.623-1.725-1.774-1.725c0,0-13.289,0-14.249,0
		c-0.958,0-1.785,0.721-1.785,1.725c0,1.003,0,39.951,0,39.951c0,12.353,8.952,22.284,25.512,22.284
		c16.736,0,25.868-9.932,25.868-22.284V65.524C235.103,64.594,234.295,63.8,233.323,63.8z"/>
	<path fill="#0732A2" d="M336.441,89.271l-10.299-3.584c-3.036-1.074-3.401-2.775-3.401-3.762c0-1.608,1.523-3.217,4.566-3.217
		c3.309,0,8.067,0.915,12.72,4.503c0.654,0.511,1.574,0.434,2.085-0.221l7.993-10.091c0.51-0.652,0.443-1.636-0.191-2.172
		c-6.797-5.771-15.162-7.776-22.877-7.778c-14.864,0-23.718,9.219-23.718,19.247c0,7.874,4.56,15.128,14.326,18.436l9.126,3.138
		c4.475,1.52,5.196,2.686,5.196,4.565c0,1.701-1.795,3.666-5.374,3.666c-5.057,0-10.992-3.037-14.99-6.35
		c-0.641-0.532-1.535-0.453-2.037,0.203l-8.206,10.777c-0.504,0.654-0.424,1.657,0.197,2.195c5.93,5.139,14.738,8.938,25.843,8.938
		c13.963,0,24.082-8.062,24.082-20.23C351.482,99.205,346.288,92.667,336.441,89.271z"/>
	<path fill="#0732A2" d="M285.326,103.148c7.596-3.758,11.527-9.655,11.527-18.421c0-11.085-8.935-20.928-24.043-20.928h-27.258
		c-0.895,0-1.621,0.916-1.621,1.812v59.329c0,0.896,0.727,1.622,1.621,1.622h14.725c0.893,0,1.622-0.726,1.622-1.622v-19.197h5.815
		l10.404,19.393c0.424,0.79,1.496,1.427,2.389,1.427h16.874c0.895,0,1.257-0.629,0.808-1.403L285.326,103.148z M271.196,90.543
		h-9.297V79.636h9.297c5.188,0,7.24,2.323,7.24,5.452C278.436,88.216,276.385,90.543,271.196,90.543z"/>
	<path fill="#0732A2" d="M107.375,63.8c0,0-41.454,0-42.751,0c-1.29,0-2.006,0.974-2.006,1.862c0,0.891,0,59.066,0,59.066
		c0,0.979,0.735,1.835,1.787,1.835c1.059,0,14.407,0,14.407,0c0.887,0,1.608-0.954,1.608-1.835v-19.065h18.271
		c0.887,0,1.76-0.707,1.938-1.578l2.759-13.099c0.172-0.772-0.23-1.622-1.302-1.622H80.421v-9.52h24.047
		c0.895,0,1.762-0.706,1.947-1.571l2.613-12.355C109.253,64.838,108.657,63.8,107.375,63.8z"/>
	<path fill="#0732A2" d="M652.854,79.841c0.887,0,1.754-0.702,1.939-1.567l2.615-12.363c0.225-1.072-0.053-2.11-1.543-2.11
		c0,0-41.77,0-42.98,0c-1.218,0-1.886,0.974-1.886,1.86c0,0.893,0,59.068,0,59.068c0,0.979,0.733,1.835,1.785,1.835
		c0.325,0,39.11,0,39.11,0c0.889,0,1.754-0.702,1.94-1.568l2.615-12.364c0.232-1.071-0.054-2.112-1.535-2.112c0,0-15.176,0-25.975,0
		v-7.19h18.131c0.887,0,1.762-0.71,1.94-1.574l2.761-13.104c0.172-0.767-0.232-1.618-1.305-1.618H628.94v-7.19H652.854z"/>
	<path fill="#0732A2" d="M524.854,65.236c-0.238-0.794-1.111-1.436-1.931-1.436H503.36c-0.827,0-1.694,0.643-1.927,1.436
		l-18.02,59.79c-0.244,0.788,0.225,1.537,1.059,1.537h16.074c0.827,0,1.681-0.749,1.905-1.543l2.548-9.027h16.136l2.773,9.033
		c0.238,0.788,1.105,1.537,1.932,1.537h15.983c0.819,0,1.302-0.749,1.058-1.537L524.854,65.236z M513.054,99.402h-5.803
		l5.803-19.193l5.817,19.193H513.054z"/>
	<path fill="#0732A2" d="M478.411,63.8c0,0-13.321,0-14.235,0c-0.992,0-1.794,0.745-1.794,1.725c0,0.922,0,36.367,0,36.367
		c0,5.903-2.422,9.043-7.88,9.043c-5.461,0-7.883-3.14-7.883-9.043V65.524c0-0.997-0.623-1.725-1.768-1.725c0,0-13.294,0-14.253,0
		c-0.96,0-1.788,0.721-1.788,1.725c0,1.003,0,39.951,0,39.951c0,12.353,8.955,22.284,25.512,22.284
		c16.742,0,25.868-9.932,25.868-22.284V65.524C480.19,64.594,479.385,63.8,478.411,63.8z"/>
	<path fill="#0732A2" d="M590.707,103.148c7.598-3.758,11.528-9.655,11.528-18.421c0-11.085-8.933-20.928-24.041-20.928h-27.26
		c-0.893,0-1.621,0.916-1.621,1.812v59.329c0,0.896,0.729,1.622,1.621,1.622h14.725c0.895,0,1.622-0.726,1.622-1.622v-19.197h5.817
		l10.402,19.393c0.424,0.79,1.496,1.427,2.389,1.427h16.87c0.898,0,1.264-0.629,0.806-1.403L590.707,103.148z M576.586,90.543
		h-9.305V79.636h9.305c5.181,0,7.233,2.323,7.233,5.452C583.818,88.216,581.767,90.543,576.586,90.543z"/>
	<path fill="#0732A2" d="M421.372,118.793c-1.998,0.751-5.703,1.748-10.105,0.755c-0.006,0-0.006-0.004-0.02-0.004
		c0.637-0.56,1.251-1.135,1.841-1.744c8.449-8.97,10.846-22.394,6.71-33.829c-4.288-11.856-15.611-19.907-28.317-20.932
		c-12.738-1.026-25.63,5.214-31.778,16.332c-6.433,11.621-5.228,26.954,3.527,37.132c7.564,8.789,19.442,12.455,30.567,10.904
		c0.152,0.147,0.317,0.307,0.495,0.473c6.162,5.817,16.181,9.049,24.726,9.049l3.527-17.162
		C422.623,119.144,422.166,118.496,421.372,118.793z M388.707,111.23c-8.199,0-13.751-7.116-13.751-15.884
		c0-8.774,5.565-15.883,13.751-15.883c8.18,0,13.745,7.108,13.745,15.883C402.452,104.114,396.901,111.23,388.707,111.23z"/>
	<path fill="#0732A2" d="M146.393,63.039c-12.732-1.026-25.632,5.214-31.778,16.332c-6.434,11.621-5.228,26.954,3.527,37.132
		c12.461,14.486,36.636,15.075,49.858,1.297c8.45-8.966,10.847-22.394,6.71-33.829C170.422,72.115,159.099,64.063,146.393,63.039z
		 M143.62,111.23c-8.194,0-13.745-7.116-13.745-15.884c0-8.774,5.564-15.883,13.745-15.883c8.18,0,13.745,7.108,13.745,15.883
		C157.365,104.114,151.811,111.23,143.62,111.23z"/>
</g>
</svg>
