<?xml version="1.0" encoding="utf-8"?>
<!-- Generator: Adobe Illustrator 17.0.0, SVG Export Plug-In . SVG Version: 6.00 Build 0)  -->
<!DOCTYPE svg PUBLIC "-//W3C//DTD SVG 1.1//EN" "http://www.w3.org/Graphics/SVG/1.1/DTD/svg11.dtd">
<svg version="1.1" id="Layer_1" xmlns="http://www.w3.org/2000/svg" xmlns:xlink="http://www.w3.org/1999/xlink" x="0px" y="0px"
	 width="220px" height="263px" viewBox="0 0 220 263" enable-background="new 0 0 220 263" xml:space="preserve">
<g>
	<g>
		<path fill="#F94877" d="M151.084,55.144c0,0-70.276,0-81.525,0C58.308,55.144,55,63.604,55,68.933c0,5.332,0,129.532,0,129.532
			c0,6.002,3.226,8.229,5.037,8.962c1.814,0.735,6.815,1.354,9.813-2.105c0,0,38.489-44.661,39.15-45.322c1-1,1-1,2-1
			c2,0,16.835,0,24.902,0c10.464,0,12.146-7.462,13.238-11.857c0.91-3.681,11.119-55.943,14.528-72.524
			C166.271,61.965,163.056,55.144,151.084,55.144z M149.141,147.143c0.91-3.681,11.119-55.943,14.528-72.524 M146.269,77.209
			l-3.422,17.835C142.437,96.972,140.011,99,137.76,99c-2.25,0-31.76,0-31.76,0c-3.573,0-6.131,2.436-6.131,6.006v3.889
			c0,3.573,2.573,6.105,6.148,6.105c0,0,24.425,0,26.945,0c2.523,0,5,2.767,4.454,5.461c-0.548,2.698-3.109,16.065-3.417,17.539
			c-0.309,1.477-2,4-5,4c-2.528,0-21.994,0-21.994,0c-4.006,0-5.217,0.523-7.896,3.854c-2.682,3.333-26.781,32.274-26.781,32.274
			c-0.244,0.28-0.482,0.199-0.482-0.106V76.944c0-2.28,1.982-4.955,4.955-4.955c0,0,62.871,0,65.424,0
			C144.633,71.989,146.883,74.252,146.269,77.209z"/>
	</g>
</g>
</svg>
