<?xml version="1.0" ?><!DOCTYPE svg  PUBLIC '-//W3C//DTD SVG 1.1//EN'  'http://www.w3.org/Graphics/SVG/1.1/DTD/svg11.dtd'><svg enable-background="new 0 0 24 24" height="24px" id="Layer_1" version="1.1" viewBox="0 0 24 24" width="24px" xml:space="preserve" xmlns="http://www.w3.org/2000/svg" xmlns:xlink="http://www.w3.org/1999/xlink"><g><path d="M23.7,19.5l-6.6-6.6C17.7,11.7,18,10.4,18,9c0-5-4-9-9-9S0,4,0,9s4,9,9,9c1.4,0,2.7-0.3,3.9-0.9l6.6,6.6   c0.4,0.4,1,0.4,1.4,0l2.8-2.8C24.1,20.5,24.1,19.9,23.7,19.5z M9,16c-3.9,0-7-3.1-7-7s3.1-7,7-7s7,3.1,7,7S12.9,16,9,16z M14.6,16   c0.5-0.4,1-0.9,1.4-1.4l3.4,3.4l-1.4,1.4L14.6,16z M20.2,21.6l-1.4-1.4l1.4-1.4l1.4,1.4L20.2,21.6z"/><path d="M9,3C5.7,3,3,5.7,3,9s2.7,6,6,6s6-2.7,6-6S12.3,3,9,3z M9,14c-2.8,0-5-2.2-5-5s2.2-5,5-5s5,2.2,5,5S11.8,14,9,14z"/></g></svg>